<?xml version="1.0" standalone="no"?><!DOCTYPE svg PUBLIC "-//W3C//DTD SVG 1.1//EN" "http://www.w3.org/Graphics/SVG/1.1/DTD/svg11.dtd"><svg class="icon" width="64px" height="64.00px" viewBox="0 0 1024 1024" version="1.1" xmlns="http://www.w3.org/2000/svg"><path fill="#ed4143" d="M809.5 63.9H491.2c-38.2 0-69.2 31.9-69.2 71v63.3h-35.8c-4.9 0-9 4-9 9v50.6c-26 5.7-50.7 15.4-73.6 28.9l-37.3-37.3c-1.7-1.7-4-2.6-6.3-2.6s-4.7 0.9-6.3 2.6L184 319.1c-3.5 3.5-3.5 9.2 0 12.7l35.8 35.8c-14.4 22.4-25 46.7-31.6 72.5h-52.8c-4.9 0-9 4-9 9v98.5c0 4.9 4 9 9 9H186c5.7 26 15.4 50.7 28.9 73.6l-37.3 37.3c-3.5 3.5-3.5 9.2 0 12.7l69.7 69.7c3.5 3.5 9.2 3.5 12.7 0l35.8-35.8c22.4 14.4 46.7 25 72.5 31.6v52.8c0 4.9 4 9 9 9h44.8v81.2c0 39.2 31 71 69.2 71h318.4c38.2 0 69.2-31.9 69.2-71V134.9c-0.2-39.2-31.2-71-69.4-71zM736 81.8c0 19.5-15.3 35.3-34.1 35.3H598.7c-18.8 0-34-15.8-34.1-35.3H736zM421.9 600.9c-50.1-4.5-89.6-46.8-89.6-98.1s39.4-93.6 89.6-98.1v196.2z m-35.8 188.5v-50.9c0-4.2-2.9-7.8-7-8.7-28.6-6.5-55.4-18.2-79.6-34.7-3.6-2.4-8.3-2-11.4 1.1l-34.6 34.6-57-57 36-36c3-3 3.5-7.6 1.2-11.1-15.6-24.8-26.3-52-31.7-80.8-0.8-4.2-4.5-7.3-8.8-7.3h-49V458h50.9c4.2 0 7.8-2.9 8.7-7 6.5-28.6 18.2-55.4 34.7-79.6 2.4-3.6 2-8.3-1.1-11.4l-34.6-34.6 57-57 36 36c3 3 7.6 3.5 11.1 1.2 24.8-15.6 52-26.3 80.8-31.7 4.2-0.8 7.3-4.5 7.3-8.8v-49h26.9v170.5c-60 4.6-107.5 54.9-107.5 116.1s47.4 111.5 107.5 116.1v170.5h-35.8z m474.7 99.1c0 29.3-23 53.1-51.3 53.1H491.1c-28.3 0-51.3-23.8-51.3-53.1V134.9c0-29.3 23-53.1 51.3-53.1h55.6c0 29.3 23.4 53.2 52 53.2H702c28.6 0 51.9-23.9 52-53.2h55.6c28.3 0 51.3 23.8 51.3 53.1v753.6z"  /><path fill="#ed4143" d="M713 919.3H587.6c-2.5 0-4.5 2-4.5 4.5s2 4.5 4.5 4.5H713c2.5 0 4.5-2 4.5-4.5s-2-4.5-4.5-4.5zM486.1 305.7h37.3c13.2 0 23.9-10.7 23.9-23.9v-37.3c0-13.2-10.7-23.9-23.9-23.9h-37.3c-13.2 0-23.9 10.7-23.9 23.9v37.3c0 13.2 10.7 23.9 23.9 23.9z m-14.9-61.2c0-8.2 6.7-14.9 14.9-14.9h37.3c8.2 0 14.9 6.7 14.9 14.9v37.3c0 8.2-6.7 14.9-14.9 14.9h-37.3c-8.2 0-14.9-6.7-14.9-14.9v-37.3zM581.7 305.7H619c13.2 0 23.9-10.7 23.9-23.9v-37.3c0-13.2-10.7-23.9-23.9-23.9h-37.3c-13.2 0-23.9 10.7-23.9 23.9v37.3c0 13.2 10.7 23.9 23.9 23.9z m-15-61.2c0-8.2 6.7-14.9 14.9-14.9H619c8.2 0 14.9 6.7 14.9 14.9v37.3c0 8.2-6.7 14.9-14.9 14.9h-37.3c-8.2 0-14.9-6.7-14.9-14.9v-37.3zM677.2 305.7h37.3c13.2 0 23.9-10.7 23.9-23.9v-37.3c0-13.2-10.7-23.9-23.9-23.9h-37.3c-13.2 0-23.9 10.7-23.9 23.9v37.3c0 13.2 10.7 23.9 23.9 23.9z m-14.9-61.2c0-8.2 6.7-14.9 14.9-14.9h37.3c8.2 0 14.9 6.7 14.9 14.9v37.3c0 8.2-6.7 14.9-14.9 14.9h-37.3c-8.2 0-14.9-6.7-14.9-14.9v-37.3zM810.1 220.6h-37.3c-13.2 0-23.9 10.7-23.9 23.9v37.3c0 13.2 10.7 23.9 23.9 23.9h37.3c13.2 0 23.9-10.7 23.9-23.9v-37.3c-0.1-13.2-10.8-23.9-23.9-23.9z m14.9 61.2c0 8.2-6.7 14.9-14.9 14.9h-37.3c-8.2 0-14.9-6.7-14.9-14.9v-37.3c0-8.2 6.7-14.9 14.9-14.9h37.3c8.2 0 14.9 6.7 14.9 14.9v37.3zM547.3 389.3V352c0-13.2-10.7-23.9-23.9-23.9h-37.3c-13.2 0-23.9 10.7-23.9 23.9v37.3c0 13.2 10.7 23.9 23.9 23.9h37.3c13.2 0 23.9-10.7 23.9-23.9z m-76.1 0V352c0-8.2 6.7-14.9 14.9-14.9h37.3c8.2 0 14.9 6.7 14.9 14.9v37.3c0 8.2-6.7 14.9-14.9 14.9h-37.3c-8.2 0-14.9-6.7-14.9-14.9zM581.7 413.2H619c13.2 0 23.9-10.7 23.9-23.9V352c0-13.2-10.7-23.9-23.9-23.9h-37.3c-13.2 0-23.9 10.7-23.9 23.9v37.3c0 13.2 10.7 23.9 23.9 23.9z m-15-61.2c0-8.2 6.7-14.9 14.9-14.9H619c8.2 0 14.9 6.7 14.9 14.9v37.3c0 8.2-6.7 14.9-14.9 14.9h-37.3c-8.2 0-14.9-6.7-14.9-14.9V352zM677.2 413.2h37.3c13.2 0 23.9-10.7 23.9-23.9V352c0-13.2-10.7-23.9-23.9-23.9h-37.3c-13.2 0-23.9 10.7-23.9 23.9v37.3c0 13.2 10.7 23.9 23.9 23.9zM662.3 352c0-8.2 6.7-14.9 14.9-14.9h37.3c8.2 0 14.9 6.7 14.9 14.9v37.3c0 8.2-6.7 14.9-14.9 14.9h-37.3c-8.2 0-14.9-6.7-14.9-14.9V352zM810.1 328.1h-37.3c-13.2 0-23.9 10.7-23.9 23.9v37.3c0 13.2 10.7 23.9 23.9 23.9h37.3c13.2 0 23.9-10.7 23.9-23.9V352c-0.1-13.2-10.8-23.9-23.9-23.9z m14.9 61.2c0 8.2-6.7 14.9-14.9 14.9h-37.3c-8.2 0-14.9-6.7-14.9-14.9V352c0-8.2 6.7-14.9 14.9-14.9h37.3c8.2 0 14.9 6.7 14.9 14.9v37.3zM579.6 649.5l-33.1-19.1 33.1-19.1c4.3-2.5 5.8-8 3.3-12.2-2.5-4.3-8-5.8-12.2-3.3l-46.5 26.9c-2.8 1.6-4.5 4.6-4.5 7.8s1.7 6.2 4.5 7.8l46.5 26.9c1.4 0.8 2.9 1.2 4.5 1.2 3.1 0 6.1-1.6 7.8-4.5 2.3-4.4 0.8-9.9-3.4-12.4zM776.6 622.6l-46.5-26.9c-4.3-2.5-9.8-1-12.2 3.3-2.5 4.3-1 9.8 3.3 12.2l33.1 19.1-33.1 19.1c-4.3 2.5-5.8 8-3.3 12.2 1.7 2.9 4.7 4.5 7.8 4.5 1.5 0 3.1-0.4 4.5-1.2l46.5-26.9c2.8-1.6 4.5-4.6 4.5-7.8s-1.8-6-4.6-7.6zM671.6 579.5c-4.6-1.8-9.8 0.4-11.6 5l-35.8 89.6c-1.8 4.6 0.4 9.8 5 11.6 1.1 0.4 2.2 0.6 3.3 0.6 3.6 0 6.9-2.1 8.3-5.6l35.8-89.6c1.8-4.5-0.4-9.7-5-11.6z"  /></svg>