<?xml version="1.0" standalone="no"?><!DOCTYPE svg PUBLIC "-//W3C//DTD SVG 1.1//EN" "http://www.w3.org/Graphics/SVG/1.1/DTD/svg11.dtd"><svg class="icon" width="64px" height="64.00px" viewBox="0 0 1024 1024" version="1.1" xmlns="http://www.w3.org/2000/svg"><path fill="#cdcdcd" d="M625.082182 960.465455l-558.545455 0 0-884.363636 884.363636 0 0 558.545455c0 12.846545-10.402909 23.272727-23.272727 23.272727s-23.272727-10.426182-23.272727-23.272727l0-512-791.272727 0 0 791.272727 512 0c12.869818 0 23.272727 10.426182 23.272727 23.272727S637.952 960.465455 625.082182 960.465455zM519.307636 724.48c23.063273-42.263273 67.351273-71.284364 118.900364-71.284364l54.388364 0 0-54.411636c0-55.482182 33.326545-103.074909 81.012364-124.229818l0-2.490182 0.069818 0-69.259636-209.291636L462.592 574.813091l-64.814545-109.800727L140.590545 724.48 519.307636 724.48 519.307636 724.48 519.307636 724.48zM398.312727 287.767273c0-42.286545-34.257455-76.590545-76.613818-76.590545-42.263273 0-76.567273 34.304-76.567273 76.590545 0 42.356364 34.304 76.613818 76.567273 76.613818C364.078545 364.381091 398.312727 330.123636 398.312727 287.767273L398.312727 287.767273zM934.190545 823.272727l-274.385455 0c-12.869818 0-23.272727-10.426182-23.272727-23.272727s10.402909-23.272727 23.272727-23.272727l274.385455 0c12.869818 0 23.272727 10.426182 23.272727 23.272727S947.037091 823.272727 934.190545 823.272727zM796.974545 960.465455c-12.869818 0-23.272727-10.426182-23.272727-23.272727l0-274.385455c0-12.846545 10.402909-23.272727 23.272727-23.272727s23.272727 10.426182 23.272727 23.272727l0 274.385455C820.247273 950.039273 809.844364 960.465455 796.974545 960.465455z" /></svg>